Simulation
nRows=15
nColumns=15
endheader
time  TH_x TH_y TH_z SC_y  SC_z  SC_x  AC_y  AC_z  AC_x  GH_y  GH_z  GH_yy  EL_x  PS_y
2.8725  0.000000  0.000000  0.000000  -33.31383235371567  -2.015535316611906  -0.9729983033173979  46.8724126410956  -6.965440649225774  0.6984796341673114  -2.314958806145232  21.31058371097674  4.330884645942328  14.085986887740367  120.000000
2.92995  0.000000  0.000000  0.000000  -34.21236411257463  -0.6109779060908345  -1.8797078509204006  45.41812238050691  -4.066750501842748  0.20867869029034192  7.343912264416511  16.310553956160224  -0.23665666824273815  14.436417570157815  120.000000
2.9874  0.000000  0.000000  0.000000  -35.38247246013785  0.48087024822704194  -2.709757991512615  44.248237744053796  -1.5070707268541597  0.041502660638702185  20.11624676054654  12.557564333672254  -8.412069832628898  14.8637730356769  120.000000
3.0448500000000003  0.000000  0.000000  0.000000  -36.735893248991175  1.28004924675826  -3.30854842625298  43.382642529329495  0.6349946672680767  0.029147741444429196  36.107739861289645  10.099410817375636  -20.430735268826176  15.328745893296313  120.000000
3.1023  0.000000  0.000000  0.000000  -38.180517517859975  1.873236236154902  -3.6508197058296625  42.798482433002384  2.3663826775544434  0.08359265348046828  53.713618743171885  8.818388011254573  -34.71976324021284  15.79849666598129  120.000000
3.15975  0.000000  0.000000  0.000000  -39.636688164602326  2.3324622625618137  -3.772031712591803  42.44999332704349  3.73691622648879  0.1496457195897452  69.94443154368302  8.420981344934441  -48.265709973205354  16.245372479036067  120.000000
3.2172  0.000000  0.000000  0.000000  -41.03196876509758  2.6942432992764624  -3.7254203550501583  42.273378957222675  4.812455866266176  0.20105675828995292  82.72975516158597  8.525342018041545  -58.92886845882938  16.65452979908719  120.000000
3.2746500000000003  0.000000  0.000000  0.000000  -42.297545449820035  2.976524939476597  -3.5570263956496504  42.199960210373455  5.650569497921142  0.22157829148839145  91.90252534814549  8.821971337315846  -66.4401661694616  17.02939822240772  120.000000
3.3321  0.000000  0.000000  0.000000  -43.366986277086504  3.191458966175816  -3.306283211058604  42.17391448040461  6.295985587238047  0.18689868827251116  98.19383351827088  9.133134988247772  -71.42269429363083  17.381667615329487  120.000000
3.38955  0.000000  0.000000  0.000000  -44.19489950643141  3.3482180929483327  -3.0050198563594495  42.1502625281735  6.775148450468867  0.07423665256147226  102.35467385243214  9.386709355105017  -74.5427339994321  17.722459249400288  120.000000
3.447  0.000000  0.000000  0.000000  -44.75851793093039  3.4565623699219463  -2.6801042380281728  42.100878049997206  7.092587624604113  -0.12284663553640267  104.89714797834912  9.571991913774873  -76.25990584004629  18.0604119163743  120.000000
3.5044500000000003  0.000000  0.000000  0.000000  -45.05005037083053  3.525799885505441  -2.360136801921387  42.027384716924985  7.240638506088082  -0.39272350762541186  106.10493018632884  9.70698873790134  -76.8395466773463  18.402413674663087  120.000000
3.5619  0.000000  0.000000  0.000000  -45.07017004046502  3.558716862144896  -2.0730403717421026  41.94903722327135  7.20936116299828  -0.7032453284728121  106.14293099839998  9.808857770870537  -76.4561087336505  18.754076264434232  120.000000
3.61935  0.000000  0.000000  0.000000  -44.829525347787914  3.54796725096437  -1.8399330576843171  41.88356083525016  6.993281568962117  -1.0003833767202295  105.13417353326227  9.872232708386592  -75.2611020493612  19.11689037928396  120.000000
3.6768  0.000000  0.000000  0.000000  -44.34370542718942  3.4860920233909973  -1.6761613863718121  41.8603427034231  6.596191902603466  -1.2227095918090496  103.13391078069864  9.87079745179094  -73.34689035231695  19.48904054836031  120.000000
